<?xml version="1.0" encoding="UTF-8" standalone="no"?>
<!-- Generator: Adobe Illustrator 22.0.1, SVG Export Plug-In . SVG Version: 6.00 Build 0)  -->

<svg
   xmlns:dc="http://purl.org/dc/elements/1.1/"
   xmlns:cc="http://creativecommons.org/ns#"
   xmlns:rdf="http://www.w3.org/1999/02/22-rdf-syntax-ns#"
   xmlns:svg="http://www.w3.org/2000/svg"
   xmlns="http://www.w3.org/2000/svg"
   xmlns:xlink="http://www.w3.org/1999/xlink"
   xmlns:sodipodi="http://sodipodi.sourceforge.net/DTD/sodipodi-0.dtd"
   xmlns:inkscape="http://www.inkscape.org/namespaces/inkscape"
   version="1.1"
   id="svg2985"
   inkscape:version="0.91 r13725"
   sodipodi:docname="indico_logo.svg"
   x="0px"
   y="0px"
   viewBox="0 0 612.13116 181.23537"
   enable-background="new 0 0 612 792"
   xml:space="preserve"
   width="612.13116"
   height="181.23537"><metadata
     id="metadata4238"><rdf:RDF><cc:Work
         rdf:about=""><dc:format>image/svg+xml</dc:format><dc:type
           rdf:resource="http://purl.org/dc/dcmitype/StillImage" /><dc:title></dc:title></cc:Work></rdf:RDF></metadata><defs
     id="defs4236" /><sodipodi:namedview
     bordercolor="#666666"
     borderopacity="1"
     gridtolerance="10"
     guidetolerance="10"
     id="namedview2998"
     inkscape:current-layer="svg2985"
     inkscape:cx="476.47711"
     inkscape:cy="198.25295"
     inkscape:pageopacity="1"
     inkscape:pageshadow="2"
     inkscape:window-height="1024"
     inkscape:window-maximized="1"
     inkscape:window-width="1920"
     inkscape:window-x="0"
     inkscape:window-y="27"
     inkscape:zoom="1.0363436"
     objecttolerance="10"
     pagecolor="#ffffff"
     showgrid="false"
     fit-margin-top="0"
     fit-margin-left="0"
     fit-margin-right="0"
     fit-margin-bottom="0" /><g
     id="g2993"
     transform="matrix(1.25,0,0,-1.25,-93.475108,236.51)"><path
       id="path3211"
       inkscape:connector-curvature="0"
       sodipodi:nodetypes="sccccsssccccs"
       d="m 367.014,92.847 c 0,26.848 21.762,48.611 48.611,48.611 l 0,0.016 35.477,0 0,-17.804 -35.477,0 c -17.02,0 -30.807,-13.803 -30.807,-30.823 0,-17.02 13.787,-30.823 30.807,-30.823 l 35.477,0 0,-17.804 -35.477,0 0,0.016 c -26.849,0.001 -48.611,21.762 -48.611,48.611 z" /><g
       id="g3025"
       transform="translate(0,3.0517579e-6)"><path
         id="path3298"
         inkscape:connector-curvature="0"
         d="m 92.433,161.84 c 0,-4.836 -3.92,-8.756 -8.756,-8.756 -4.836,0 -8.755,3.92 -8.755,8.756 0,4.836 3.92,8.755 8.755,8.755 4.836,0.001 8.756,-3.919 8.756,-8.755 z" /></g><path
       id="path3211-8"
       inkscape:connector-curvature="0"
       d="m 156.537,140.76 c 26.848,0 48.611,-21.762 48.611,-48.61 l 0.016,0 0,-47.93 -17.804,0 0,47.93 c 0,17.02 -13.803,30.807 -30.823,30.807 -17.02,0 -30.823,-13.787 -30.823,-30.807 l 0,-47.93 -17.803,0 0,47.93 0.016,0 c 0,26.848 21.762,48.61 48.61,48.61 z" /><g
       id="g3002"
       transform="translate(11.62795,-1.0100067)"><a
         id="a3033"
         xlink:href="http://www.indico.io#join"><path
           id="path3298-2"
           inkscape:connector-curvature="0"
           d="m 339.911,162.847 c 0,-4.836 -3.919,-8.756 -8.755,-8.756 -4.836,0 -8.755,3.92 -8.755,8.756 0,4.836 3.92,8.756 8.755,8.756 4.835,0 8.755,-3.921 8.755,-8.756 z" /></a></g><path
       id="path3001-8-9"
       inkscape:connector-curvature="0"
       d="m 515.469,142.268 c -27.077,0 -49.032,-21.955 -49.032,-49.032 0,-27.077 21.955,-49.016 49.032,-49.016 27.077,0 49.016,21.939 49.016,49.016 0,27.077 -21.938,49.032 -49.016,49.032 z m 0,-19.052 c 16.556,0 29.964,-13.425 29.964,-29.98 0,-16.555 -13.409,-29.98 -29.964,-29.98 -16.555,0 -29.98,13.425 -29.98,29.98 0,16.555 13.425,29.98 29.98,29.98 z m 0,-21.24 c -4.818,0 -8.723,-3.905 -8.723,-8.723 0,-4.818 3.905,-8.723 8.723,-8.723 4.818,0 8.723,3.905 8.723,8.723 10e-4,4.817 -3.905,8.723 -8.723,8.723 z" /><path
       id="rect3178"
       inkscape:connector-curvature="0"
       d="m 300.89,189.208 0,-58.274 c -8.498,7.084 -19.429,11.334 -31.359,11.334 -27.077,0 -49.032,-21.955 -49.032,-49.032 0,-27.077 21.955,-49.016 49.032,-49.016 26.941,0 48.798,21.72 49.016,48.61 10e-4,0.136 0,0.27 0,0.405 l 0,95.973 -17.657,0 z m -31.358,-65.992 c 16.555,0 29.964,-13.425 29.964,-29.98 0,-16.555 -13.409,-29.98 -29.964,-29.98 -16.556,0 -29.98,13.425 -29.98,29.98 -0.001,16.555 13.424,29.98 29.98,29.98 z" /></g><rect
     x="0"
     y="60.625366"
     width="22.243999"
     height="120.61"
     id="rect4232" /><rect
     x="323.88"
     y="60.625366"
     width="22.243"
     height="120.61"
     id="rect4234" /></svg>