<?xml version="1.0" encoding="utf-8"?>
<!-- Generator: Adobe Illustrator 18.1.1, SVG Export Plug-In . SVG Version: 6.00 Build 0)  -->
<svg version="1.1"
	 id="svg7777" inkscape:version="0.48.4 r9939" sodipodi:docname="learntomod-flat.svg" xmlns:dc="http://purl.org/dc/elements/1.1/" xmlns:svg="http://www.w3.org/2000/svg" xmlns:cc="http://creativecommons.org/ns#" xmlns:rdf="http://www.w3.org/1999/02/22-rdf-syntax-ns#" xmlns:inkscape="http://www.inkscape.org/namespaces/inkscape" xmlns:sodipodi="http://sodipodi.sourceforge.net/DTD/sodipodi-0.dtd"
	 xmlns="http://www.w3.org/2000/svg" xmlns:xlink="http://www.w3.org/1999/xlink" x="0px" y="0px" viewBox="327 150.2 754.4 225.8"
	 enable-background="new 327 150.2 754.4 225.8" xml:space="preserve" width = "194px" height="60px">
<sodipodi:namedview  inkscape:window-maximized="1" inkscape:window-y="-8" inkscape:current-layer="layer1" inkscape:window-x="-8" inkscape:pageopacity="0.0" inkscape:window-width="1366" inkscape:document-units="px" inkscape:window-height="706" inkscape:pageshadow="2" fit-margin-bottom="0" fit-margin-right="0" inkscape:cx="667.40088" bordercolor="#666666" fit-margin-left="0" inkscape:zoom="0.26053847" borderopacity="1.0" fit-margin-top="0" inkscape:cy="466.94622" id="base" showgrid="false" pagecolor="#ffffff">
	</sodipodi:namedview>
<g id="layer1" transform="translate(309.19303,-242.48501)" inkscape:groupmode="layer" inkscape:label="Layer 1">

		<g id="g3711" transform="matrix(1.4208992,0.66343311,0.01774413,1.0409078,-441.49524,269.58646)" inkscape:export-ydpi="300" inkscape:export-xdpi="300" inkscape:export-filename="C:\Users\John\Pictures\Art\learntomod-flat.png">

			<path id="path3713" inkscape:connector-curvature="0" sodipodi:nodetypes="ccccc" opacity="0.8606" fill="#0A9FDB" enable-background="new    " d="
			M388.3-95.6l54.6,15l-1.4,93.6L387.6-2.3L388.3-95.6z"/>
	</g>
	<g id="text3719">
		<path id="path8364" fill="#1A1A1A" d="M214.6,563.5v-72.2h9.6V555h35.5v8.5H214.6z"/>
		<path id="path8366" fill="#1A1A1A" d="M305.8,546.7l9.2,1.1c-1.4,5.4-4.1,9.5-8,12.5c-3.9,3-8.9,4.4-15,4.4
			c-7.6,0-13.7-2.4-18.2-7.1c-4.5-4.7-6.7-11.3-6.7-19.8c0-8.8,2.3-15.6,6.8-20.5c4.5-4.9,10.4-7.3,17.6-7.3c7,0,12.7,2.4,17.1,7.1
			c4.4,4.8,6.6,11.5,6.6,20.1c0,0.5,0,1.3,0,2.4h-39c0.3,5.7,2,10.1,4.9,13.2s6.6,4.6,10.9,4.6c3.2,0,6-0.9,8.3-2.6
			C302.6,553.2,304.5,550.4,305.8,546.7L305.8,546.7z M276.7,532.4h29.2c-0.4-4.4-1.5-7.7-3.3-9.9c-2.8-3.4-6.5-5.1-11-5.1
			c-4.1,0-7.5,1.4-10.3,4.1C278.5,524.2,277,527.8,276.7,532.4L276.7,532.4z"/>
		<path id="path8368" fill="#1A1A1A" d="M360.3,557.1c-3.3,2.8-6.4,4.8-9.5,5.9c-3,1.1-6.3,1.7-9.8,1.7c-5.7,0-10.2-1.4-13.2-4.2
			s-4.6-6.4-4.6-10.8c0-2.6,0.6-4.9,1.7-7c1.2-2.1,2.7-3.8,4.6-5.1c1.9-1.3,4-2.2,6.4-2.9c1.7-0.5,4.4-0.9,7.9-1.3
			c7.2-0.9,12.4-1.9,15.8-3.1c0-1.2,0-2,0-2.3c0-3.6-0.8-6.2-2.5-7.6c-2.3-2-5.6-3-10.1-3c-4.2,0-7.2,0.7-9.2,2.2
			c-2,1.5-3.5,4-4.4,7.8l-8.7-1.2c0.8-3.7,2.1-6.7,3.9-9c1.8-2.3,4.4-4,7.8-5.3c3.4-1.2,7.4-1.8,11.9-1.8c4.5,0,8.1,0.5,10.9,1.6
			c2.8,1.1,4.8,2.4,6.2,4c1.3,1.6,2.2,3.6,2.8,6c0.3,1.5,0.4,4.2,0.4,8.2v11.8c0,8.2,0.2,13.4,0.6,15.6c0.4,2.2,1.1,4.3,2.2,6.3H362
			C361.1,561.7,360.5,559.5,360.3,557.1L360.3,557.1z M359.5,537.3c-3.2,1.3-8,2.4-14.5,3.3c-3.6,0.5-6.2,1.1-7.7,1.8
			c-1.5,0.7-2.7,1.6-3.5,2.9c-0.8,1.3-1.2,2.7-1.2,4.2c0,2.4,0.9,4.3,2.7,5.9c1.8,1.6,4.4,2.4,7.9,2.4c3.4,0,6.4-0.7,9.1-2.2
			c2.7-1.5,4.6-3.5,5.9-6.1c1-2,1.4-5,1.4-8.9V537.3z"/>
		<path id="path8370" fill="#1A1A1A" d="M382.2,563.5v-52.3h8v7.9c2-3.7,3.9-6.2,5.6-7.3c1.7-1.2,3.6-1.8,5.7-1.8c3,0,6,1,9.1,2.9
			l-3.1,8.2c-2.2-1.3-4.3-1.9-6.5-1.9c-1.9,0-3.7,0.6-5.2,1.7c-1.5,1.2-2.6,2.8-3.3,4.8c-1,3.2-1.5,6.6-1.5,10.3v27.4L382.2,563.5z"
			/>
		<path id="path8372" fill="#1A1A1A" d="M416,563.5v-52.3h8v7.4c3.8-5.7,9.4-8.6,16.6-8.6c3.2,0,6,0.6,8.7,1.7
			c2.6,1.1,4.6,2.6,5.9,4.5c1.3,1.8,2.2,4,2.8,6.5c0.3,1.6,0.5,4.5,0.5,8.6v32.2h-8.9v-31.8c0-3.6-0.3-6.3-1-8.1
			c-0.7-1.8-1.9-3.2-3.7-4.3c-1.8-1.1-3.8-1.6-6.2-1.6c-3.8,0-7,1.2-9.8,3.6c-2.7,2.4-4.1,6.9-4.1,13.6v28.6H416z"/>
		<path id="path8374" fill="#1A1A1A" d="M491.6,563.5v-63.7h-23.8v-8.5H525v8.5h-23.9v63.7H491.6z"/>
		<path id="path8376" fill="#1A1A1A" d="M530.4,537.4c0-9.7,2.7-16.9,8.1-21.5c4.5-3.9,10-5.8,16.4-5.8c7.2,0,13.1,2.4,17.6,7.1
			c4.6,4.7,6.8,11.2,6.8,19.5c0,6.7-1,12-3,15.9c-2,3.9-5,6.9-8.8,9c-3.9,2.1-8.1,3.2-12.6,3.2c-7.3,0-13.2-2.3-17.7-7
			C532.7,553,530.4,546.2,530.4,537.4z M539.5,537.4c0,6.7,1.5,11.7,4.4,15c2.9,3.3,6.6,5,11,5c4.4,0,8.1-1.7,11-5
			c2.9-3.3,4.4-8.5,4.4-15.3c0-6.5-1.5-11.4-4.4-14.7c-2.9-3.3-6.6-5-11-5c-4.4,0-8.1,1.7-11,5C541,525.7,539.5,530.7,539.5,537.4z"
			/>
		<path id="path8378" fill="#1A1A1A" d="M590.7,563.5v-72.2h14.4l17.1,51.1c1.6,4.8,2.7,8.3,3.4,10.7c0.8-2.6,2.1-6.5,3.8-11.6
			l17.3-50.2h12.9v72.2h-9.2v-60.4l-21,60.4h-8.6l-20.9-61.4v61.4L590.7,563.5z"/>
		<path id="path8380" fill="#1A1A1A" d="M670.7,537.4c0-9.7,2.7-16.9,8.1-21.5c4.5-3.9,10-5.8,16.4-5.8c7.2,0,13.1,2.4,17.6,7.1
			c4.6,4.7,6.8,11.2,6.8,19.5c0,6.7-1,12-3,15.9c-2,3.9-5,6.9-8.8,9c-3.9,2.1-8.1,3.2-12.6,3.2c-7.3,0-13.2-2.3-17.7-7
			C672.9,553,670.7,546.2,670.7,537.4L670.7,537.4z M679.8,537.4c0,6.7,1.5,11.7,4.4,15c2.9,3.3,6.6,5,11,5c4.4,0,8.1-1.7,11-5
			c2.9-3.3,4.4-8.5,4.4-15.3c0-6.5-1.5-11.4-4.4-14.7c-2.9-3.3-6.6-5-11-5c-4.4,0-8.1,1.7-11,5C681.2,525.7,679.8,530.7,679.8,537.4
			z"/>
		<path id="path8382" fill="#1A1A1A" d="M764,563.5v-6.6c-3.3,5.2-8.2,7.8-14.6,7.8c-4.2,0-8-1.1-11.5-3.4s-6.2-5.5-8.1-9.6
			s-2.9-8.9-2.9-14.2c0-5.2,0.9-10,2.6-14.2c1.7-4.3,4.3-7.5,7.8-9.8c3.5-2.3,7.4-3.4,11.7-3.4c3.2,0,6,0.7,8.4,2
			c2.5,1.3,4.5,3.1,6,5.2v-25.9h8.8v72.2H764z M736,537.4c0,6.7,1.4,11.7,4.2,15c2.8,3.3,6.2,5,10,5c3.9,0,7.2-1.6,9.9-4.8
			c2.7-3.2,4.1-8,4.1-14.5c0-7.2-1.4-12.4-4.1-15.8c-2.8-3.3-6.2-5-10.2-5c-3.9,0-7.2,1.6-9.9,4.8C737.3,525.4,736,530.5,736,537.4
			L736,537.4z"/>
	</g>

		<g id="g3723" transform="matrix(0.99064156,-0.48674774,0.67623093,1.1221822,-631.07869,383.60578)" inkscape:export-ydpi="300" inkscape:export-xdpi="300" inkscape:export-filename="C:\Users\John\Pictures\Art\learntomod-flat.png">

			<path id="path3725" inkscape:connector-curvature="0" sodipodi:nodetypes="ccccc" opacity="0.8606" fill="#24BC51" enable-background="new    " d="
			M502.4,263.2l90,1.9l-0.4,78.2l-90-1.9L502.4,263.2z"/>
	</g>

		<g id="g3727" transform="matrix(1.0587206,-0.48674774,-0.01369634,1.1221822,-356.03281,479.79283)" inkscape:export-ydpi="300" inkscape:export-xdpi="300" inkscape:export-filename="C:\Users\John\Pictures\Art\learntomod-flat.png">
		<path id="rect3729" opacity="0.8606" fill="#0DE6C0" enable-background="new    " d="M429.2,224.1H515l0,85.7h-85.7L429.2,224.1z"
			/>
	</g>

		<g id="g3731" transform="matrix(1.4208992,0.66343311,0.01774413,1.0409078,-532.25793,311.47693)" inkscape:export-ydpi="300" inkscape:export-xdpi="300" inkscape:export-filename="C:\Users\John\Pictures\Art\learntomod-flat.png">

			<path id="path3733" inkscape:connector-curvature="0" sodipodi:nodetypes="ccccc" opacity="0.8606" fill="#0A9FDB" enable-background="new    " d="
			M388.3-95.6l54.6,15l-1.4,93.6L387.6-2.3L388.3-95.6z"/>
	</g>
</g>
</svg>
